/* XPM */
static char * menu_xpm[] = {
"32 28 64 1 XPMEXT",
" 	c None",
".	c #040304",
"+	c #0E9004",
"@	c #910204",
"#	c #064804",
"$	c #9F5453",
"%	c #92C28C",
"&	c #500204",
"*	c #D20908",
"=	c #888787",
"-	c #423E3C",
";	c #952324",
">	c #BFCABE",
",	c #063104",
"'	c #A6A6A4",
")	c #CC2625",
"!	c #DAE5DA",
"~	c #4B4B4C",
"{	c #6A0305",
"]	c #A80204",
"^	c #EE0505",
"/	c #2E0204",
"(	c #6F1516",
"_	c #EA4E4C",
":	c #D4CBCA",
"<	c #B6AAAA",
"[	c #7C0204",
"}	c #8D1918",
"|	c #0A6904",
"1	c #8D6967",
"2	c #B18B89",
"3	c #0E1B0F",
"4	c #528E4C",
"5	c #6D6D6C",
"6	c #54E804",
"7	c #0E9E04",
"8	c #2C2C2B",
"9	c #712727",
"0	c #704A4C",
"a	c #FEFEFC",
"b	c #E33738",
"c	c #7AB478",
"d	c #BCBABA",
"e	c #AB7577",
"f	c #9A3739",
"g	c #5DA357",
"h	c #8E5F60",
"i	c #CB1817",
"j	c #969697",
"k	c #0A7604",
"l	c #7C7C7A",
"m	c #3A3A39",
"n	c #3E963C",
"o	c #DAD9DA",
"p	c #085704",
"q	c #EB2B2C",
"r	c #28861E",
"s	c #B01717",
"t	c #F41A1C",
"u	c #EDEAE9",
"v	c #5B5B5A",
"w	c #AB9B9C",
"x	c #703837",
"y	c #CC5E60",
"        7++++++++++++++|        ",
"       77++++++++++++++k#       ",
"       7+kkkkkkkkkkkkkkkp       ",
"      77a'a'a'a'a'a'a'a.|#      ",
"      7+'~=j8=ll>llj'=''|p      ",
"     77+a5~5mm=>8!5='5'.k|p     ",
"    77+k'55=m5=:88o:l~j'kk|#    ",
"    7+kka''''''d>83~:''.kk|p    ",
"   77+kk''a'a'a<u33!o'''kkk|p   ",
"  77+kkka''''''<>~o.o<'.kkkk|#  ",
"  7+kkkk''=5='j'':'o3:''kkkk|p  ",
" 77+kkkka'm'v=555j5=>''.kkkkk|# ",
" 7+kkkkk''m5mj555mv'5'''kkkkk|# ",
"77+kkkkka'm5v5vm58vjv''.kkkkkkp|",
"|kkkkkkk''''''''''''''''kkkkk|,,",
" |kkkkkka''''''''''''''.kkkk|p3 ",
" ||kkkkk''=55j'''''j''''kkkk|,. ",
"  |kkkkka'5m'=5vj=5v=''.kkk|p3  ",
"  ||kkkk'''m'5~v=~55''''kkkp,.  ",
"   #|kkka''8jjv5=5~5=''.kk|,.   ",
"    |kkk''''''''''''''''k|p3    ",
"    ||kka''''''''''''''.kp,.    ",
"     #|k''''''''''''''''|,.     ",
"      |ka.'.'.'.'.'.'.'.p3      ",
"      ||kkkkkkkkkkkkkkk|,.      ",
"       |k||||||||||||||#3       ",
"       pp##############,.       ",
"        |##############,        ",
"XPMEXT ude_hex_coords 8 0",
"XPMENDEXT"};
